<?xml version="1.0"?>
<svg xmlns="http://www.w3.org/2000/svg" xmlns:xlink="http://www.w3.org/1999/xlink" xmlns:svgjs="http://svgjs.com/svgjs" version="1.1" width="512" height="512" x="0" y="0" viewBox="0 0 510 510" style="enable-background:new 0 0 512 512" xml:space="preserve" class=""><g><g xmlns="http://www.w3.org/2000/svg"><path d="m0 0v334.154c0 30.793 25.053 55.846 55.846 55.846h154.154v30h-23.226c-28.548 0-51.774 23.226-51.774 51.774v38.226h240v-38.226c0-28.548-23.226-51.774-51.774-51.774h-23.226v-30h154.154c30.793 0 55.846-25.053 55.846-55.846v-334.154zm480 30v270h-450v-270zm-135 441.774v8.226h-180v-8.226c0-12.007 9.768-21.774 21.774-21.774h136.451c12.007 0 21.775 9.768 21.775 21.774zm-75-51.774h-30v-30h30zm184.154-60h-398.308c-14.251 0-25.846-11.595-25.846-25.846v-4.154h450v4.154c0 14.251-11.595 25.846-25.846 25.846z" fill="#610302" data-original="#000000" style="" class=""/><path d="m131.967 154.246 21.213-21.213 21.214 21.213 21.212-21.213-21.213-21.213 21.213-21.214-21.212-21.212-21.214 21.213-21.213-21.213-21.213 21.212 21.213 21.214-21.213 21.213z" fill="#610302" data-original="#000000" style="" class=""/><path d="m340.606 154.246 21.214-21.213 21.213 21.213 21.213-21.213-21.213-21.213 21.213-21.214-21.213-21.212-21.213 21.213-21.214-21.213-21.212 21.212 21.213 21.214-21.213 21.213z" fill="#610302" data-original="#000000" style="" class=""/><path d="m157.952 240.151c58.046-40.033 136.047-40.036 194.097.001l39.436 27.196 17.031-24.697-39.435-27.195c-33.698-23.241-73.146-35.524-114.081-35.524s-80.383 12.283-114.08 35.523l-39.436 27.196 17.031 24.697z" fill="#610302" data-original="#000000" style="" class=""/></g></g></svg>
